<svg width="580" height="400" xmlns="http://www.w3.org/2000/svg">
 <!-- Created with Method Draw - http://github.com/duopixel/Method-Draw/ -->
 <g>
  <title>background</title>
  <rect fill="#fff" id="canvas_background" height="402" width="582" y="-1" x="-1"/>
  <g display="none" overflow="visible" y="0" x="0" height="100%" width="100%" id="canvasGrid">
   <rect fill="url(#gridpattern)" stroke-width="0" y="0" x="0" height="100%" width="100%"/>
  </g>
 </g>
 <g>
  <title>Layer 1</title>
  <path id="svg_1" d="m293.75569,98.42695c10.606,0.01341 20.73811,1.8498 30.33369,4.91769l-7.59421,13.13442l53.90657,0l-13.48009,-23.34555l-13.4698,-23.33857l-7.09061,12.29793c-13.28893,-4.85847 -27.6149,-7.57754 -42.59589,-7.57754c-68.95639,0 -124.84771,55.89483 -124.84771,124.85096c0,28.61906 9.73375,54.91371 25.93285,75.98108l18.98374,-14.57568c-13.10138,-17.02533 -20.97865,-38.27057 -21.02139,-61.39851c0.09542,-55.75012 45.19962,-100.86075 100.94284,-100.94623l0.00001,0zm98.92802,24.98459l-18.9837,14.58266c13.09808,17.01885 20.97539,38.2507 21.01143,61.38551c-0.09543,55.74966 -45.19962,100.85384 -100.94608,100.94571c-9.8786,-0.01277 -19.32938,-1.61905 -28.339,-4.30534l7.1464,-12.35753l-53.90633,0l13.47012,23.33263l13.47984,23.36481l7.51521,-13.04187c12.74574,4.4371 26.38684,6.91254 40.63376,6.91898c68.96634,-0.01285 124.84807,-55.90773 124.86427,-124.86391c-0.0162,-28.619 -9.75687,-54.90723 -25.94592,-75.96164l0,-0.00001z" opacity="0.5" stroke-width="1.5" stroke="#529D94" fill="#000000"/>
  <text font-weight="bold" xml:space="preserve" text-anchor="start" font-family="'Simonetta', serif" font-size="24" id="svg_3" y="202.453125" x="248.5" stroke-width="0" stroke="#000000" fill="#000000">QueueSvr</text>
 </g>
</svg>